<svg width="1600" height="900" xmlns="http://www.w3.org/2000/svg" xmlns:xlink="http://www.w3.org/1999/xlink" overflow="hidden"><g><rect x="0" y="0" width="1600" height="900" fill="#FFFFFF"/><path d="M553 70C553 38.5198 599.115 13 656 13 712.885 13 759 38.5198 759 70 759 101.48 712.885 127 656 127 599.115 127 553 101.48 553 70Z" stroke="#2F528F" stroke-width="1.66667" stroke-miterlimit="8" fill="#4472C4" fill-rule="evenodd"/><text fill="#FFFFFF" font-family="Consolas,Consolas_MSFontService,Arial" font-weight="400" font-size="18" transform="translate(610.958 76)">topDeoder</text><path d="M553 221C553 189.52 599.115 164 656 164 712.885 164 759 189.52 759 221 759 252.48 712.885 278 656 278 599.115 278 553 252.48 553 221Z" stroke="#2F528F" stroke-width="1.66667" stroke-miterlimit="8" fill="#4472C4" fill-rule="evenodd"/><text fill="#FFFFFF" font-family="Consolas,Consolas_MSFontService,Arial" font-weight="400" font-size="18" transform="translate(620.958 227)">decode</text><text fill="#FFFFFF" font-family="Consolas,Consolas_MSFontService,Arial" font-weight="400" font-size="18" transform="translate(680.958 227)">r</text><path d="M229 371.5C229 340.296 275.339 315 332.5 315 389.661 315 436 340.296 436 371.5 436 402.704 389.661 428 332.5 428 275.339 428 229 402.704 229 371.5Z" stroke="#2F528F" stroke-width="1.66667" stroke-miterlimit="8" fill="#4472C4" fill-rule="evenodd"/><text fill="#FFFFFF" font-family="Consolas,Consolas_MSFontService,Arial" font-weight="400" font-size="18" transform="translate(262.201 378)">lightGroupLink</text><path d="M892 371.5C892 340.296 938.115 315 995 315 1051.89 315 1098 340.296 1098 371.5 1098 402.704 1051.89 428 995 428 938.115 428 892 402.704 892 371.5Z" stroke="#2F528F" stroke-width="1.66667" stroke-miterlimit="8" fill="#4472C4" fill-rule="evenodd"/><text fill="#FFFFFF" font-family="Consolas,Consolas_MSFontService,Arial" font-weight="400" font-size="18" transform="translate(930.048 378)">sateLliteLink</text><path d="M229 523.5C229 492.296 275.339 467 332.5 467 389.661 467 436 492.296 436 523.5 436 554.704 389.661 580 332.5 580 275.339 580 229 554.704 229 523.5Z" stroke="#2F528F" stroke-width="1.66667" stroke-miterlimit="8" fill="#4472C4" fill-rule="evenodd"/><text fill="#FFFFFF" font-family="Consolas,Consolas_MSFontService,Arial" font-weight="400" font-size="18" transform="translate(282.201 530)">lightGrou</text><text fill="#FFFFFF" font-family="Consolas,Consolas_MSFontService,Arial" font-weight="400" font-size="18" transform="translate(372.201 530)">p</text><path d="M229 675.5C229 644.296 275.339 619 332.5 619 389.661 619 436 644.296 436 675.5 436 706.704 389.661 732 332.5 732 275.339 732 229 706.704 229 675.5Z" stroke="#2F528F" stroke-width="1.66667" stroke-miterlimit="8" fill="#4472C4" fill-rule="evenodd"/><text fill="#FFFFFF" font-family="Consolas,Consolas_MSFontService,Arial" font-weight="400" font-size="18" transform="translate(262.201 682)">lightGroupType</text><path d="M892 522.5C892 491.296 938.115 466 995 466 1051.89 466 1098 491.296 1098 522.5 1098 553.704 1051.89 579 995 579 938.115 579 892 553.704 892 522.5Z" stroke="#2F528F" stroke-width="1.66667" stroke-miterlimit="8" fill="#4472C4" fill-rule="evenodd"/><text fill="#FFFFFF" font-family="Consolas,Consolas_MSFontService,Arial" font-weight="400" font-size="18" transform="translate(950.048 529)">satellite</text><path d="M685 673.5C685 642.296 731.339 617 788.5 617 845.661 617 892 642.296 892 673.5 892 704.704 845.661 730 788.5 730 731.339 730 685 704.704 685 673.5Z" stroke="#2F528F" stroke-width="1.66667" stroke-miterlimit="8" fill="#4472C4" fill-rule="evenodd"/><text fill="#FFFFFF" font-family="Consolas,Consolas_MSFontService,Arial" font-weight="400" font-size="18" transform="translate(748.381 680)">actuator</text><path d="M0 0 250.689 54.1528" stroke="#4472C4" stroke-width="1.66667" stroke-miterlimit="8" fill="none" fill-rule="evenodd" transform="matrix(-1 0 0 1 582.689 261)"/><path d="M729 261 995.022 315.153" stroke="#4472C4" stroke-width="1.66667" stroke-miterlimit="8" fill="none" fill-rule="evenodd"/><path d="M1098 673.5C1098 642.296 1144.34 617 1201.5 617 1258.66 617 1305 642.296 1305 673.5 1305 704.704 1258.66 730 1201.5 730 1144.34 730 1098 704.704 1098 673.5Z" stroke="#2F528F" stroke-width="1.66667" stroke-miterlimit="8" fill="#4472C4" fill-rule="evenodd"/><text fill="#FFFFFF" font-family="Consolas,Consolas_MSFontService,Arial" font-weight="400" font-size="18" transform="translate(1171.71 680)">senso</text><text fill="#FFFFFF" font-family="Consolas,Consolas_MSFontService,Arial" font-weight="400" font-size="18" transform="translate(1221.71 680)">r</text><path d="M1098 824.5C1098 793.296 1144.34 768 1201.5 768 1258.66 768 1305 793.296 1305 824.5 1305 855.704 1258.66 881 1201.5 881 1144.34 881 1098 855.704 1098 824.5Z" stroke="#2F528F" stroke-width="1.66667" stroke-miterlimit="8" fill="#4472C4" fill-rule="evenodd"/><text fill="#FFFFFF" font-family="Consolas,Consolas_MSFontService,Arial" font-weight="400" font-size="18" transform="translate(1151.71 830)">sensorType</text><path d="M685 824.5C685 793.296 731.339 768 788.5 768 845.661 768 892 793.296 892 824.5 892 855.704 845.661 881 788.5 881 731.339 881 685 855.704 685 824.5Z" stroke="#2F528F" stroke-width="1.66667" stroke-miterlimit="8" fill="#4472C4" fill-rule="evenodd"/><text fill="#FFFFFF" font-family="Consolas,Consolas_MSFontService,Arial" font-weight="400" font-size="18" transform="translate(728.381 830)">actuatorType</text><path d="M656 127 656 164.556" stroke="#4472C4" stroke-width="1.66667" stroke-miterlimit="8" fill="none" fill-rule="evenodd"/><path d="M332 428 332 466.667" stroke="#4472C4" stroke-width="1.66667" stroke-miterlimit="8" fill="none" fill-rule="evenodd"/><path d="M332 580 332 618.667" stroke="#4472C4" stroke-width="1.66667" stroke-miterlimit="8" stroke-dasharray="6.66667 5" fill="none" fill-rule="evenodd"/><path d="M0 0 0.000131234 37.5555" stroke="#4472C4" stroke-width="1.66667" stroke-miterlimit="8" fill="none" fill-rule="evenodd" transform="matrix(-1 0 0 1 995 428)"/><path d="M0 0 133.599 54.1528" stroke="#4472C4" stroke-width="1.66667" stroke-miterlimit="8" fill="none" fill-rule="evenodd" transform="matrix(-1 0 0 1 921.599 563)"/><path d="M1068 563 1201.6 617.153" stroke="#4472C4" stroke-width="1.66667" stroke-miterlimit="8" fill="none" fill-rule="evenodd"/><path d="M788 730 788 767.556" stroke="#4472C4" stroke-width="1.66667" stroke-miterlimit="8" stroke-dasharray="6.66667 5" fill="none" fill-rule="evenodd"/><path d="M1202 730 1202 767.556" stroke="#4472C4" stroke-width="1.66667" stroke-miterlimit="8" stroke-dasharray="6.66667 5" fill="none" fill-rule="evenodd"/><text font-family="Calibri,Calibri_MSFontService,Arial" font-weight="400" font-size="30" transform="translate(663.367 155)">1:N</text><text font-family="Calibri,Calibri_MSFontService,Arial" font-weight="400" font-size="30" transform="translate(447.534 277)">1:N</text><text font-family="Calibri,Calibri_MSFontService,Arial" font-weight="400" font-size="30" transform="translate(840.357 277)">1:N</text><text font-family="Calibri,Calibri_MSFontService,Arial" font-weight="400" font-size="30" transform="translate(344.201 458)">1:N</text><text font-family="Calibri,Calibri_MSFontService,Arial" font-weight="400" font-size="30" transform="translate(1006.01 459)">1:N</text><text font-family="Calibri,Calibri_MSFontService,Arial" font-weight="400" font-size="30" transform="translate(342.926 610)">1:1</text><text font-family="Calibri,Calibri_MSFontService,Arial" font-weight="400" font-size="30" transform="translate(818.368 584)">1:N</text><text font-family="Calibri,Calibri_MSFontService,Arial" font-weight="400" font-size="30" transform="translate(1128.15 584)">1:N</text><text font-family="Calibri,Calibri_MSFontService,Arial" font-weight="400" font-size="30" transform="translate(797.715 757)">1:1</text><text font-family="Calibri,Calibri_MSFontService,Arial" font-weight="400" font-size="30" transform="translate(1213.71 757)">1:1</text></g></svg>